<?xml version="1.0" encoding="utf-8"?>
<!-- Generator: Adobe Illustrator 15.0.0, SVG Export Plug-In . SVG Version: 6.00 Build 0)  -->
<!DOCTYPE svg PUBLIC "-//W3C//DTD SVG 1.1//EN" "http://www.w3.org/Graphics/SVG/1.1/DTD/svg11.dtd">
<svg version="1.1" id="Layer_1" xmlns="http://www.w3.org/2000/svg" xmlns:xlink="http://www.w3.org/1999/xlink" x="0px" y="0px"
	 width="576px" height="64px" viewBox="0 0 575.873 64" enable-background="new 0 0 575.873 64" xml:space="preserve">
<g id="Circle_Templates" display="none">
	<circle display="inline" cx="32" cy="32" r="32"/>
	<circle display="inline" cx="96" cy="32" r="32"/>
	<circle display="inline" cx="160" cy="32" r="32"/>
	<circle display="inline" cx="224" cy="32" r="32"/>
	<circle display="inline" cx="288" cy="32" r="32"/>
	<circle display="inline" cx="352" cy="32" r="32"/>
	<circle display="inline" cx="416" cy="32" r="32"/>
	<circle display="inline" cx="480" cy="32" r="32"/>
	<circle display="inline" cx="544" cy="32.001" r="32"/>
</g>
<g id="Icons">
	<path id="Twitter" fill-rule="evenodd" clip-rule="evenodd" fill="#FFFFFF" d="M396.731,39.535
		c-0.614-0.653-1.238-1.298-1.731-2.07c1.978,1.539,4.214,2.818,7.599,2.951c0.091,0.058,0.416,0.058,0.508,0
		c3.518-0.124,6.024-1.696,7.972-3.357c0.129-0.109,0.352-0.197,0.306-0.306c-0.012,0-0.022,0-0.034,0c-0.192,0-0.385,0-0.576,0
		c-1.133-0.146-2.078-0.479-2.443-1.322c-0.538-1.246,0.751-2.047,1.527-2.511c-0.046,0-0.091,0-0.137,0c-0.18,0-0.361,0-0.542,0
		c-2.372-0.127-3.802-1.197-4.682-2.815c0.602-0.823,1.729-1.12,2.985-1.29c-2.52-0.624-4.525-1.759-4.884-4.544
		c0.788-0.174,1.708-0.214,2.51-0.373c-1.883-1.148-3.648-2.594-3.596-5.563c2.068,0.784,4.182,1.636,6.241,2.544
		c2.618,1.155,5.376,2.37,7.36,4.071c0.468,0.4,0.853,0.901,1.357,1.221c0.734-2.173,1.69-4.289,2.78-6.174
		c1.086-1.874,2.349-3.661,4.207-4.68c-0.058,0.395-0.361,0.724-0.407,1.017c0.861-0.688,1.9-1.197,3.188-1.459
		c0.034,0,0.067,0,0.103,0c-0.089,0.828-0.927,1.086-1.357,1.459c0.511-0.258,1.001-0.403,1.696-0.577
		c0.459-0.115,1.67-0.426,1.696,0.271c0.021,0.588-1.071,0.935-1.595,1.119c-0.731,0.257-1.43,0.428-2.138,0.611
		c5.685,0.433,8.391,3.844,9.634,8.717c0.707,0.209,1.487,0.345,2.408,0.34c0.048,0.055,0.325,0.055,0.372,0
		c0.998,0.046,1.809-0.272,2.478-0.442c-0.726,1.695-2.659,2.181-4.783,2.477c0.933,0.323,1.924,0.587,3.188,0.577
		c0.092,0.056,0.417,0.056,0.508,0c0.423,0.015,0.792-0.025,1.154-0.068c0.217,0.047-0.208,0.243-0.237,0.374
		c-0.98,0.861-2.204,1.481-3.969,1.56c-0.18,0-0.361,0-0.542,0c-0.185,0.025-0.264-0.054-0.441-0.034
		c-2.714,9.255-10.002,14.062-21.2,14.857c-0.181,0-0.361,0-0.543,0c-0.18,0-0.362,0-0.542,0c-0.227,0-0.453,0-0.679,0
		c-6.505-0.348-10.823-2.881-14.35-6.208C396.992,39.769,396.868,39.645,396.731,39.535z"/>
	<text id="Ellipses" transform="matrix(1 0 0 1 333.6289 46.9561)" fill="#FFFFFF" font-family="'HoboStd'" font-size="42.6667">...</text>
	<path id="Asterisk" fill="#FFFFFF" d="M304.074,22.023c1.355,0,4.268,9.053,4.268,10.093c0,1.874-4.476,2.29-13.111,3.642
		c7.077,7.389,8.323,8.428,8.323,9.26c0,1.146-8.425,6.451-9.365,6.451c-1.456,0-1.765-1.874-6.139-9.572
		c-4.261,7.387-4.683,9.572-6.345,9.572c-1.248,0-9.259-4.994-9.259-6.348c0-0.936,0.935-1.561,8.323-9.365
		c-8.637-1.248-13.111-1.769-13.111-3.329c0-1.353,2.394-10.407,4.162-10.407c0.628,0,1.248,0.208,10.926,4.37l-1.041-10.924
		c0-3.33,1.769-2.912,3.641-2.912h5.309c1.977,0,3.641-0.417,3.641,2.08l-1.041,11.756C297.105,24,302.826,22.023,304.074,22.023z"
		/>
	<polygon id="Star" fill="#FFFFFF" points="224,6.222 231.367,21.146 247.836,23.542 235.92,35.157 238.732,51.561 224,43.816 
		209.268,51.561 212.084,35.157 200.166,23.542 216.635,21.146 	"/>
	<path id="Braces" fill="#FFFFFF" d="M153.408,17.319c-0.514,0-0.919,0.099-1.218,0.297c-0.301,0.201-0.535,0.448-0.704,0.747
		c-0.172,0.298-0.279,0.633-0.322,1.002c-0.041,0.37-0.064,0.726-0.064,1.068v6.485c0,1.054-0.166,1.899-0.491,2.541
		c-0.327,0.64-0.713,1.14-1.152,1.494c-0.443,0.355-0.905,0.604-1.387,0.747c-0.484,0.144-0.884,0.228-1.195,0.256v0.128
		c0.313,0.028,0.711,0.119,1.195,0.276c0.481,0.156,0.946,0.412,1.387,0.77c0.44,0.355,0.826,0.826,1.152,1.408
		c0.325,0.583,0.491,1.33,0.491,2.24v6.828c0,0.312,0.021,0.654,0.064,1.023c0.042,0.372,0.149,0.705,0.322,1.005
		c0.169,0.297,0.403,0.548,0.704,0.745c0.297,0.199,0.704,0.299,1.218,0.299h2.302v4.78h-5.417c-0.484,0-1.031-0.121-1.643-0.364
		c-0.612-0.242-1.181-0.598-1.707-1.066c-0.528-0.471-0.976-1.069-1.344-1.793c-0.37-0.725-0.555-1.571-0.555-2.539v-8.278
		c0-0.654-0.144-1.209-0.427-1.664c-0.285-0.455-0.626-0.817-1.026-1.088c-0.398-0.271-0.823-0.47-1.28-0.598
		c-0.455-0.126-0.839-0.192-1.152-0.192v-3.711c0.312,0,0.697-0.064,1.152-0.192c0.455-0.126,0.882-0.341,1.28-0.64
		c0.4-0.297,0.741-0.697,1.026-1.195c0.285-0.498,0.427-1.102,0.427-1.815v-8.023c0-0.965,0.185-1.815,0.555-2.539
		c0.37-0.725,0.816-1.324,1.344-1.793c0.526-0.469,1.095-0.825,1.707-1.067c0.611-0.242,1.159-0.362,1.643-0.362h5.418v4.78h-2.304
		V17.319z M166.549,46.68c0.516,0,0.919-0.102,1.221-0.299c0.299-0.197,0.534-0.448,0.702-0.745
		c0.171-0.299,0.279-0.634,0.324-1.005c0.041-0.369,0.062-0.709,0.062-1.023v-6.828c0-0.91,0.165-1.658,0.49-2.24
		c0.326-0.584,0.713-1.053,1.15-1.408c0.443-0.355,0.907-0.613,1.389-0.77c0.483-0.156,0.881-0.247,1.194-0.275v-0.128
		c-0.313-0.029-0.709-0.112-1.194-0.256c-0.482-0.142-0.946-0.391-1.389-0.747c-0.438-0.355-0.827-0.853-1.15-1.493
		c-0.327-0.64-0.49-1.486-0.49-2.541v-6.485c0-0.341-0.021-0.699-0.062-1.068c-0.042-0.37-0.153-0.704-0.324-1.003
		c-0.168-0.298-0.403-0.545-0.702-0.747c-0.302-0.199-0.704-0.297-1.221-0.297h-2.3v-4.782h5.418c0.487,0,1.031,0.121,1.643,0.363
		c0.61,0.242,1.183,0.597,1.71,1.066c0.522,0.47,0.972,1.069,1.342,1.794c0.368,0.726,0.555,1.573,0.555,2.539v8.023
		c0,0.711,0.142,1.315,0.426,1.815c0.281,0.498,0.626,0.896,1.024,1.195c0.398,0.298,0.825,0.514,1.28,0.64
		c0.453,0.128,0.854,0.192,1.195,0.192v3.711c-0.34,0-0.742,0.066-1.195,0.192c-0.455,0.13-0.882,0.329-1.28,0.597
		c-0.4,0.271-0.743,0.634-1.024,1.089c-0.284,0.455-0.426,1.01-0.426,1.663v8.279c0,0.968-0.187,1.814-0.555,2.539
		c-0.37,0.726-0.82,1.322-1.342,1.792c-0.528,0.47-1.101,0.825-1.71,1.067c-0.611,0.241-1.154,0.363-1.643,0.363h-5.418V46.68
		H166.549z"/>
	<path id="Meeple" fill="#FFFFFF" d="M115.76,26.475c0.228-5.438-12.789-8.085-13.353-8.704c-0.281-0.309,0.652-8.306-6.407-8.3
		c-7.058-0.005-6.126,7.991-6.407,8.299c-0.563,0.62-13.58,3.266-13.353,8.704c0.228,5.438,7.136,2.646,8.609,4.247
		c1.289,1.399-6.041,10.366-6.858,16.061c-0.267,1.856,0.254,2.218,2.057,2.218c3.271,0,6.395-0.002,9.271-0.002
		c1.297,0,1.76-0.747,2.432-1.776c1.483-2.277,3.275-5.94,4.249-5.938c0.976,0,2.768,3.662,4.252,5.938
		c0.67,1.029,1.132,1.776,2.432,1.776c2.876,0,6,0,9.269,0c1.805,0,2.327-0.359,2.059-2.216c-0.817-5.694-8.147-14.661-6.858-16.062
		C108.626,29.118,115.532,31.911,115.76,26.475z"/>
	<path id="Gamepad" fill="#FFFFFF" d="M54.908,21.168c-0.775-3.422-8.64-5.317-12.7-3.291c-1.458,0.729-3.027,2.263-4.263,3.856
		H26.059c-1.237-1.593-2.805-3.127-4.263-3.856c-4.062-2.027-11.925-0.132-12.7,3.291c-1.243,5.484-4.973,24.865,0.588,25.703
		c5.177,0.779,10.423-3.854,14.03-9.188h16.578c3.605,5.334,8.852,9.967,14.028,9.188C59.881,46.033,56.149,26.652,54.908,21.168z
		 M16.777,30.905c-2.007,0-3.634-1.628-3.634-3.635c0-2.007,1.626-3.634,3.634-3.634s3.634,1.626,3.634,3.634
		C20.411,29.276,18.784,30.905,16.777,30.905z M47.225,30.905c-2.007,0-3.634-1.628-3.634-3.635c0-2.007,1.628-3.634,3.634-3.634
		c2.007,0,3.634,1.626,3.634,3.634C50.86,29.276,49.232,30.905,47.225,30.905z"/>
</g>
<g>
	<ellipse fill="#FFFFFF" cx="472.294" cy="40.346" rx="4.124" ry="4.17"/>
	<path fill="#FFFFFF" d="M488.104,44.516h-5.843c0-7.868-6.31-14.245-14.091-14.245l0,0v-5.907
		C479.179,24.364,488.104,33.386,488.104,44.516z"/>
	<path fill="#FFFFFF" d="M492.228,44.516c0-13.434-10.771-24.321-24.058-24.321v-6.081c16.608,0,30.072,13.611,30.072,30.402
		H492.228z"/>
</g>
<text transform="matrix(1 0 0 1 525.3828 42.3535)" fill="#FFFFFF" font-family="'SansusWebissimo'" font-size="47.9323">@</text>
</svg>
